<svg width="25" height="25" viewBox="0 0 25 25" fill="none" xmlns="http://www.w3.org/2000/svg">
<path d="M11.4864 22.7146H13.0877C16.0864 22.7146 17.5858 22.7146 18.6373 21.9507C18.9769 21.7039 19.2755 21.4053 19.5222 21.0657C20.2861 20.0143 20.2861 18.5144 20.2861 15.5146V14.1416C20.2861 12.6473 20.2861 11.9001 20.0362 11.2267C19.9537 11.0044 19.8516 10.7899 19.7311 10.5857C19.366 9.96702 18.7862 9.49587 17.6264 8.55357L12.2861 4.2146L6.94586 8.55357C5.78611 9.49587 5.20623 9.96702 4.84117 10.5857C4.72068 10.7899 4.61859 11.0044 4.53609 11.2267C4.28613 11.9001 4.28613 12.6473 4.28613 14.1416V15.5146C4.28613 18.5144 4.28613 20.0143 5.05006 21.0657C5.29678 21.4053 5.59541 21.7039 5.93499 21.9507C6.98645 22.7146 8.48643 22.7146 11.4864 22.7146Z" stroke="#333333" stroke-width="1.5" stroke-linecap="round"/>
<line x1="0.8" y1="-0.8" x2="13.7173" y2="-0.8" transform="matrix(-0.757719 0.652581 -0.757719 -0.652581 12.2856 2.7146)" stroke="#333333" stroke-width="1.6" stroke-linecap="round"/>
<line x1="0.8" y1="-0.8" x2="13.7173" y2="-0.8" transform="matrix(0.757719 0.652581 0.757719 -0.652581 12.2856 2.7146)" stroke="#333333" stroke-width="1.6" stroke-linecap="round"/>
<line x1="10.0356" y1="18.8066" x2="14.0356" y2="18.8066" stroke="#333333" stroke-width="1.5" stroke-linecap="round"/>
</svg>
