<svg width="134" height="20" viewBox="0 0 134 20" fill="none" xmlns="http://www.w3.org/2000/svg">
<path d="M0.319977 19.015H15.2149C21.0433 19.015 22.8422 16.654 22.8422 13.6282V13.3823C22.8422 10.2334 20.2518 9.15133 18.405 8.88055C19.7481 8.6841 21.8588 7.62595 21.8588 5.16612V4.9941C21.8588 2.7063 20.2998 0.714233 15.1909 0.714233H0.319977V19.015ZM13.392 4.9941C14.7352 4.9941 15.1909 5.5107 15.1909 6.29808V6.34693C15.1909 7.10935 14.7592 7.6509 13.392 7.6509H6.79605V4.9941H13.392ZM13.8717 11.6111C15.5987 11.6111 15.8864 12.2509 15.8864 12.964V13.0622C15.8864 13.7514 15.5987 14.5382 13.8717 14.5382H6.79605V11.6111H13.8717Z" fill="#333333"/>
<path d="M25.2985 0.714233V19.015H43.2875V14.5382H31.7505V12.0295H42.7598V7.47835H31.7505V5.1417H43.1196V0.714233H25.2985Z" fill="#333333"/>
<path d="M46.295 0.714233V19.015H64.2839V14.5382H52.747V12.0295H63.7564V7.47835H52.747V5.1417H64.1162V0.714233H46.295Z" fill="#333333"/>
<path d="M80.3155 13.5544C86.8877 13.5544 88.6867 10.8487 88.6867 7.2081V6.88795C88.6867 3.27228 86.9597 0.714233 80.3155 0.714233H67.2917V19.015H73.7677V13.5544H80.3155ZM73.7677 5.38752H79.716C81.4669 5.38752 81.9706 6.19933 81.9706 7.08493V7.1343C81.9706 8.0937 81.4669 8.88055 79.716 8.88055H73.7677V5.38752Z" fill="#333333"/>
<path d="M102.753 19.2858C112.539 19.2858 113.499 13.0622 113.499 9.44653V0.714233H107.07V9.39715C107.07 11.488 106.423 13.899 102.417 13.899H102.321C98.2678 13.899 97.572 11.488 97.572 9.39715V0.714233H91.1443V9.44653C91.1443 13.0622 91.8395 19.2858 102.009 19.2858H102.753Z" fill="#333333"/>
<path d="M116.85 0.714233V19.015H134V13.8251H123.327V0.714233H116.85Z" fill="#333333"/>
</svg>
