<svg width="49" height="50" viewBox="0 0 49 50" fill="none" xmlns="http://www.w3.org/2000/svg">
<path d="M42.8498 0H5.90375C2.6432 0 0 2.71077 0 6.05468V43.9453C0 47.2892 2.6432 50 5.90375 50H42.8498C46.1104 50 48.7536 47.2892 48.7536 43.9453V6.05468C48.7536 2.71077 46.1104 0 42.8498 0Z" fill="url(#paint0_linear_2905_501)"/>
<path fill-rule="evenodd" clip-rule="evenodd" d="M13.5997 10.6838H25.3204C26.4299 10.6838 27.3296 11.6063 27.3296 12.7444V24.8074H28.8367V12.7444C28.8367 10.7528 27.2623 9.13831 25.3204 9.13831H13.5997C11.6578 9.13831 10.0835 10.7528 10.0835 12.7444V37.2569C10.0835 39.2484 11.6578 40.8629 13.5997 40.8629H20.9252C19.7303 40.8629 18.6747 40.2517 18.0395 39.3175H13.5997C12.4903 39.3175 11.5905 38.3949 11.5905 37.2569V12.7444C11.5905 11.6063 12.4903 10.6838 13.5997 10.6838Z" fill="url(#paint1_radial_2905_501)"/>
<path fill-rule="evenodd" clip-rule="evenodd" d="M35.1169 26.356H20.9267C19.8173 26.356 18.9175 27.2785 18.9175 28.4166V37.26C18.9175 38.398 19.8173 39.3206 20.9267 39.3206H35.1169C36.2269 39.3206 37.1261 38.398 37.1261 37.26V28.4166C37.1261 27.2785 36.2269 26.356 35.1169 26.356ZM20.9267 24.8105C18.9848 24.8105 17.4105 26.425 17.4105 28.4166V37.26C17.4105 39.2515 18.9848 40.866 20.9267 40.866H35.1169C37.0588 40.866 38.6331 39.2515 38.6331 37.26V28.4166C38.6331 26.425 37.0588 24.8105 35.1169 24.8105H20.9267Z" fill="url(#paint2_radial_2905_501)"/>
<path d="M27.1127 24.8081V25.0313H27.3302H28.8372H29.0551V24.8081V12.745C29.0551 10.6302 27.3835 8.91577 25.321 8.91577H13.6007C11.5387 8.91577 9.8671 10.6302 9.8671 12.745V37.2575C9.8671 39.3724 11.5387 41.0867 13.6007 41.0867H20.9262V40.8635V40.6403C19.8054 40.6403 18.815 40.0673 18.2186 39.1904L18.1534 39.0949H18.04H13.6007C12.6114 39.0949 11.809 38.2723 11.809 37.2575V12.745C11.809 11.7303 12.6114 10.9076 13.6007 10.9076H25.321C26.3108 10.9076 27.1127 11.7303 27.1127 12.745V24.8081Z" fill="url(#paint3_radial_2905_501)"/>
<path d="M27.1127 24.8081V25.0313H27.3302H28.8372H29.0551V24.8081V12.745C29.0551 10.6302 27.3835 8.91577 25.321 8.91577H13.6007C11.5387 8.91577 9.8671 10.6302 9.8671 12.745V37.2575C9.8671 39.3724 11.5387 41.0867 13.6007 41.0867H20.9262V40.8635V40.6403C19.8054 40.6403 18.815 40.0673 18.2186 39.1904L18.1534 39.0949H18.04H13.6007C12.6114 39.0949 11.809 38.2723 11.809 37.2575V12.745C11.809 11.7303 12.6114 10.9076 13.6007 10.9076H25.321C26.3108 10.9076 27.1127 11.7303 27.1127 12.745V24.8081Z" stroke="black" stroke-width="0.840834"/>
<path d="M27.1127 24.8081V25.0313H27.3302H28.8372H29.0551V24.8081V12.745C29.0551 10.6302 27.3835 8.91577 25.321 8.91577H13.6007C11.5387 8.91577 9.8671 10.6302 9.8671 12.745V37.2575C9.8671 39.3724 11.5387 41.0867 13.6007 41.0867H20.9262V40.8635V40.6403C19.8054 40.6403 18.815 40.0673 18.2186 39.1904L18.1534 39.0949H18.04H13.6007C12.6114 39.0949 11.809 38.2723 11.809 37.2575V12.745C11.809 11.7303 12.6114 10.9076 13.6007 10.9076H25.321C26.3108 10.9076 27.1127 11.7303 27.1127 12.745V24.8081Z" stroke="url(#paint4_radial_2905_501)" stroke-width="0.840834"/>
<path d="M20.9267 26.5788H35.1169C36.1062 26.5788 36.9087 27.4014 36.9087 28.4162V37.2595C36.9087 38.2743 36.1062 39.097 35.1169 39.097H20.9267C19.9374 39.097 19.1355 38.2743 19.1355 37.2595V28.4162C19.1355 27.4014 19.9374 26.5788 20.9267 26.5788ZM20.9267 24.5869C18.8647 24.5869 17.1931 26.3013 17.1931 28.4162V37.2595C17.1931 39.3744 18.8647 41.0888 20.9267 41.0888H35.1169C37.1789 41.0888 38.8506 39.3744 38.8506 37.2595V28.4162C38.8506 26.3013 37.1789 24.5869 35.1169 24.5869H20.9267Z" fill="url(#paint5_radial_2905_501)"/>
<path d="M20.9267 26.5788H35.1169C36.1062 26.5788 36.9087 27.4014 36.9087 28.4162V37.2595C36.9087 38.2743 36.1062 39.097 35.1169 39.097H20.9267C19.9374 39.097 19.1355 38.2743 19.1355 37.2595V28.4162C19.1355 27.4014 19.9374 26.5788 20.9267 26.5788ZM20.9267 24.5869C18.8647 24.5869 17.1931 26.3013 17.1931 28.4162V37.2595C17.1931 39.3744 18.8647 41.0888 20.9267 41.0888H35.1169C37.1789 41.0888 38.8506 39.3744 38.8506 37.2595V28.4162C38.8506 26.3013 37.1789 24.5869 35.1169 24.5869H20.9267Z" stroke="black" stroke-width="0.840834"/>
<path d="M20.9267 26.5788H35.1169C36.1062 26.5788 36.9087 27.4014 36.9087 28.4162V37.2595C36.9087 38.2743 36.1062 39.097 35.1169 39.097H20.9267C19.9374 39.097 19.1355 38.2743 19.1355 37.2595V28.4162C19.1355 27.4014 19.9374 26.5788 20.9267 26.5788ZM20.9267 24.5869C18.8647 24.5869 17.1931 26.3013 17.1931 28.4162V37.2595C17.1931 39.3744 18.8647 41.0888 20.9267 41.0888H35.1169C37.1789 41.0888 38.8506 39.3744 38.8506 37.2595V28.4162C38.8506 26.3013 37.1789 24.5869 35.1169 24.5869H20.9267Z" stroke="url(#paint6_radial_2905_501)" stroke-width="0.840834"/>
<defs>
<linearGradient id="paint0_linear_2905_501" x1="24.3767" y1="0" x2="24.3767" y2="50" gradientUnits="userSpaceOnUse">
<stop stop-color="#353534"/>
<stop offset="1" stop-color="#0E0F10"/>
</linearGradient>
<radialGradient id="paint1_radial_2905_501" cx="0" cy="0" r="1" gradientUnits="userSpaceOnUse" gradientTransform="translate(11.8608 10.7233) rotate(60.8741) scale(11.9477 152.655)">
<stop stop-color="#FEDB01"/>
<stop offset="1" stop-color="#D98818"/>
</radialGradient>
<radialGradient id="paint2_radial_2905_501" cx="0" cy="0" r="1" gradientUnits="userSpaceOnUse" gradientTransform="translate(19.4218 25.6127) rotate(38.7505) scale(8.43866 123.788)">
<stop stop-color="#FEDB01"/>
<stop offset="1" stop-color="#D98818"/>
</radialGradient>
<radialGradient id="paint3_radial_2905_501" cx="0" cy="0" r="1" gradientUnits="userSpaceOnUse" gradientTransform="translate(11.8613 10.7239) rotate(60.8741) scale(11.9477 152.655)">
<stop stop-color="#FEDB01"/>
<stop offset="1" stop-color="#D98818"/>
</radialGradient>
<radialGradient id="paint4_radial_2905_501" cx="0" cy="0" r="1" gradientUnits="userSpaceOnUse" gradientTransform="translate(11.8613 10.7239) rotate(60.8741) scale(11.9477 152.655)">
<stop stop-color="#FEDB01"/>
<stop offset="1" stop-color="#D98818"/>
</radialGradient>
<radialGradient id="paint5_radial_2905_501" cx="0" cy="0" r="1" gradientUnits="userSpaceOnUse" gradientTransform="translate(19.4218 25.6123) rotate(38.7505) scale(8.43866 123.788)">
<stop stop-color="#FEDB01"/>
<stop offset="1" stop-color="#D98818"/>
</radialGradient>
<radialGradient id="paint6_radial_2905_501" cx="0" cy="0" r="1" gradientUnits="userSpaceOnUse" gradientTransform="translate(19.4218 25.6123) rotate(38.7505) scale(8.43866 123.788)">
<stop stop-color="#FEDB01"/>
<stop offset="1" stop-color="#D98818"/>
</radialGradient>
</defs>
</svg>
