<svg width="24" height="24" viewBox="0 0 24 24" fill="none" xmlns="http://www.w3.org/2000/svg">
<path d="M12.0005 2C14.3363 2 15.0555 3.34721 15.207 4.64302C15.2794 5.26214 16.3994 5.93158 16.9794 5.70341C18.1316 5.25025 19.5676 5.22903 20.6607 7C21.7251 9.02485 20.6675 10.3803 19.587 11.1632C19.1201 11.5015 19.1201 12.4985 19.587 12.8368C20.6675 13.6197 21.7251 14.9751 20.6607 17C19.5676 18.771 18.1316 18.7497 16.9794 18.2966C16.3994 18.0684 15.2794 18.7379 15.207 19.357C15.0555 20.6528 14.3363 22 12.0005 22C9.6646 22 8.94541 20.6528 8.7939 19.357C8.72151 18.7379 7.60155 18.0684 7.02147 18.2966C5.86935 18.7497 4.43327 18.771 3.3402 17C2.39534 15.2025 3.12269 13.9325 4.05383 13.1223C4.51799 12.7184 4.44036 11.4663 3.93926 11.1093C2.90685 10.3737 2.11155 9.10049 3.3402 7C4.39249 5.20101 5.70894 5.09638 6.8074 5.48925C7.41096 5.70512 8.72038 4.97007 8.84006 4.34033C9.06709 3.14576 9.84632 2 12.0005 2Z" stroke="#A2A8B1" stroke-width="1.5"/>
<circle cx="12" cy="12" r="2.25" stroke="#A2A8B1" stroke-width="1.5"/>
</svg>
