<svg width="28" height="28" viewBox="0 0 28 28" fill="none" xmlns="http://www.w3.org/2000/svg">
<path d="M14 21L14 14" stroke="#333333" stroke-width="1.5" stroke-linecap="round" stroke-linejoin="round"/>
<path d="M12.502 9.96918C12.9379 9.44608 13.2243 9.10417 13.4654 8.87443C13.6976 8.65309 13.8086 8.61529 13.8693 8.60456C13.9557 8.58925 14.0442 8.58925 14.1307 8.60456C14.1914 8.61529 14.3024 8.65309 14.5346 8.87443C14.7757 9.10417 15.0621 9.44608 15.498 9.96918L16.0742 9.48904L15.498 9.96918L15.5667 10.0516C16.2822 10.9102 16.7738 11.5021 17.0758 11.9666C17.3868 12.445 17.3741 12.6106 17.3641 12.6574C17.3402 12.7687 17.2913 12.873 17.2211 12.9625L17.8115 13.4251L17.2211 12.9626C17.1916 13.0003 17.0725 13.1161 16.5059 13.1834C15.9557 13.2487 15.1863 13.25 14.0687 13.25L13.9313 13.25C12.8137 13.25 12.0443 13.2487 11.4941 13.1834C10.9275 13.1161 10.8084 13.0003 10.7788 12.9625C10.7087 12.873 10.6598 12.7687 10.6359 12.6574C10.6259 12.6106 10.6132 12.445 10.9242 11.9666C11.2262 11.5021 11.7178 10.9102 12.4332 10.0516L12.502 9.96918Z" stroke="#333333" stroke-width="1.5"/>
<rect width="23.3333" height="23.3333" rx="6" transform="matrix(4.37114e-08 1 1 -4.37114e-08 2.33333 2.33325)" stroke="#333333" stroke-width="1.5"/>
</svg>
