<svg width="32" height="32" viewBox="0 0 32 32" fill="none" xmlns="http://www.w3.org/2000/svg">
<path d="M0 4C0 1.79086 1.79086 0 4 0H28C30.2091 0 32 1.79086 32 4V28C32 30.2091 30.2091 32 28 32H4C1.79086 32 0 30.2091 0 28V4Z" fill="#F2F4F6"/>
<path d="M22 18.0001C22 18.0001 25 17.5001 25 19.8151C25.5 24.0001 22 23.5001 22 23.5001" stroke="#333333" stroke-width="1.5" stroke-linecap="round" stroke-linejoin="round"/>
<path d="M19.7115 7.14449C19.7115 7.14449 21.8568 6.99332 22.1471 9.42388C22.4374 11.8544 20.3046 12.1092 20.3046 12.1092" stroke="#333333" stroke-width="1.5" stroke-linecap="round" stroke-linejoin="round"/>
<path d="M7.24942 20.5081C7.27294 20.1789 7.2847 20.0142 7.29887 19.9132C7.51818 18.3491 8.70205 17.3237 10.2814 17.3298C10.3834 17.3302 10.5877 17.3449 10.9962 17.3743C11.7512 17.4286 12.5513 17.4667 13.3122 17.4667C14.1774 17.4667 15.1328 17.4175 16.0287 17.3511C16.422 17.3219 16.6187 17.3074 16.7309 17.3074C18.278 17.3086 19.4715 18.3402 19.6967 19.8708C19.713 19.9818 19.7249 20.1482 19.7486 20.4809V20.4809C19.7687 20.7623 19.7788 20.903 19.778 21.0201C19.7676 22.5785 18.5656 23.8694 17.0119 23.9909C16.8952 24 16.7541 24 16.4719 24H13.3122H10.5008C10.2438 24 10.1153 24 10.0089 23.9924C8.43841 23.8806 7.22155 22.5737 7.22193 20.9993C7.22195 20.8926 7.23111 20.7645 7.24942 20.5081V20.5081Z" stroke="#333333" stroke-width="1.5"/>
<path d="M10 10.5C10 8.567 11.567 7 13.5 7V7C15.433 7 17 8.567 17 10.5V11C17 12.6569 15.6569 14 14 14V14H13V14C11.3431 14 10 12.6569 10 11V10.5Z" stroke="#333333" stroke-width="1.5"/>
</svg>
